<svg width="106" height="107" viewBox="0 0 106 107" fill="none" xmlns="http://www.w3.org/2000/svg">
<g filter="url(#filter0_d_1_790)">
<rect x="20" y="12.4473" width="66" height="66" rx="24" fill="url(#paint0_linear_1_790)"/>
</g>
<path fill-rule="evenodd" clip-rule="evenodd" d="M53.1935 46.1971C55.837 46.1971 57.9801 44.054 57.9801 41.4105C57.9801 38.7669 55.837 36.6239 53.1935 36.6239C50.5499 36.6239 48.4069 38.7669 48.4069 41.4105C48.4069 44.054 50.5499 46.1971 53.1935 46.1971Z" fill="white"/>
<path fill-rule="evenodd" clip-rule="evenodd" d="M57.3476 45.6614C56.2714 46.6875 54.8064 47.3189 53.1924 47.3189C51.5784 47.3189 50.1134 46.6875 49.0372 45.6614C48.8519 45.6154 48.6665 45.57 48.4865 45.5471C48.3066 45.5241 48.1324 45.5241 47.9701 45.5492C47.8083 45.5738 47.6587 45.624 47.4841 45.6865C47.3094 45.7484 47.1102 45.8232 46.8608 45.9728C46.6119 46.1223 46.3123 46.3467 46.026 46.7211C45.7392 47.0945 45.4652 47.6185 45.2158 48.2419C44.9664 48.8647 44.742 49.588 44.6176 50.2861C44.4932 50.9837 44.4681 51.6573 44.4558 52.1679C44.443 52.6791 44.443 53.0285 44.4932 53.365C44.5428 53.7015 44.6422 54.0252 44.867 54.3494C45.0913 54.6737 45.4401 54.9979 45.8513 55.2468C46.2626 55.4963 46.7363 55.6709 47.3847 55.758C48.0326 55.8451 48.8551 55.8451 49.8522 55.8451H52.7438H53.1924H53.641H56.5326C57.5298 55.8451 58.3523 55.8451 59.0001 55.758C59.6485 55.6709 60.1222 55.4963 60.5335 55.2468C60.9447 54.9979 61.2935 54.6737 61.5178 54.3494C61.7427 54.0252 61.842 53.7015 61.8917 53.365C61.9419 53.0285 61.9419 52.6791 61.9291 52.1679C61.9168 51.6573 61.8917 50.9837 61.7672 50.2861C61.6428 49.588 61.4185 48.8647 61.169 48.2419C60.9196 47.6185 60.6456 47.0945 60.3588 46.7211C60.0726 46.3467 59.7729 46.1223 59.524 45.9728C59.2746 45.8232 59.0754 45.7484 58.9008 45.6865C58.7261 45.624 58.5766 45.5738 58.4147 45.5492C58.2524 45.5241 58.0783 45.5241 57.8983 45.5471C57.7183 45.57 57.533 45.6154 57.3476 45.6614Z" fill="white"/>
<path fill-rule="evenodd" clip-rule="evenodd" d="M58.293 43.7694C59.1437 44.5461 60.2763 45.0204 61.519 45.0204C64.1619 45.0204 66.3044 42.8773 66.3044 40.2338C66.3044 37.5903 64.1619 35.4472 61.519 35.4472C59.8219 35.4472 58.3304 36.3313 57.4813 37.664C58.4393 38.5389 59.0406 39.7995 59.0406 41.1996C59.0406 42.145 58.7661 43.0274 58.293 43.7694Z" fill="white"/>
<path fill-rule="evenodd" clip-rule="evenodd" d="M47.707 43.7694C46.8563 44.5461 45.7236 45.0204 44.481 45.0204C41.8381 45.0204 39.6956 42.8773 39.6956 40.2338C39.6956 37.5903 41.8381 35.4472 44.481 35.4472C46.1781 35.4472 47.6696 36.3313 48.5187 37.664C47.5607 38.5389 46.9594 39.7995 46.9594 41.1996C46.9594 42.145 47.2339 43.0274 47.707 43.7694Z" fill="white"/>
<path fill-rule="evenodd" clip-rule="evenodd" d="M65.4096 44.6614C64.3651 45.6566 62.9551 46.281 61.3976 46.3173L61.5697 46.5235C61.8566 46.8969 62.1307 47.4209 62.3802 48.0443C62.6297 48.6671 62.8541 49.3903 62.9786 50.0885C63.1031 50.7861 63.1282 51.4597 63.1405 51.9703C63.1533 52.4815 63.1533 52.8308 63.1031 53.1674C63.0534 53.5039 62.954 53.8276 62.7291 54.1518C62.5618 54.3933 62.3257 54.6352 62.0463 54.8452H64.5943C65.5918 54.8452 66.4146 54.8452 67.0627 54.7581C67.7114 54.671 68.1853 54.4963 68.5967 54.2469C69.0081 53.998 69.357 53.6737 69.5814 53.3495C69.8063 53.0253 69.9057 52.7016 69.9554 52.3651C70.0056 52.0285 70.0056 51.6792 69.9928 51.168C69.9805 50.6574 69.9554 49.9838 69.8309 49.2862C69.7064 48.588 69.482 47.8648 69.2325 47.242C68.983 46.6186 68.7089 46.0946 68.422 45.7212C68.1356 45.3468 67.8359 45.1224 67.5869 44.9729C67.3374 44.8233 67.1381 44.7485 66.9634 44.6866C66.7887 44.6241 66.6391 44.5738 66.4772 44.5493C66.3147 44.5242 66.1406 44.5242 65.9605 44.5471C65.7804 44.5701 65.595 44.6155 65.4096 44.6614Z" fill="white"/>
<path fill-rule="evenodd" clip-rule="evenodd" d="M40.5903 44.6614C41.6349 45.6566 43.0449 46.281 44.6023 46.3173L44.4303 46.5235C44.1434 46.8969 43.8693 47.4209 43.6198 48.0443C43.3703 48.6671 43.1459 49.3903 43.0214 50.0885C42.8969 50.7861 42.8718 51.4597 42.8595 51.9703C42.8466 52.4815 42.8466 52.8308 42.8969 53.1674C42.9466 53.5039 43.0459 53.8276 43.2709 54.1518C43.4381 54.3933 43.6743 54.6352 43.9537 54.8452H41.4057C40.4081 54.8452 39.5853 54.8452 38.9372 54.7581C38.2886 54.671 37.8147 54.4963 37.4033 54.2469C36.9918 53.998 36.643 53.6737 36.4186 53.3495C36.1936 53.0253 36.0942 52.7016 36.0445 52.3651C35.9943 52.0285 35.9943 51.6792 36.0071 51.168C36.0194 50.6574 36.0445 49.9838 36.169 49.2862C36.2935 48.588 36.5179 47.8648 36.7674 47.242C37.017 46.6186 37.2911 46.0946 37.578 45.7212C37.8644 45.3468 38.1641 45.1224 38.4131 44.9729C38.6626 44.8233 38.8619 44.7485 39.0366 44.6866C39.2113 44.6241 39.3609 44.5738 39.5228 44.5493C39.6852 44.5242 39.8594 44.5242 40.0395 44.5471C40.2195 44.5701 40.4049 44.6155 40.5903 44.6614Z" fill="white"/>
<defs>
<filter id="filter0_d_1_790" x="0" y="0.447266" width="106" height="106" filterUnits="userSpaceOnUse" color-interpolation-filters="sRGB">
<feFlood flood-opacity="0" result="BackgroundImageFix"/>
<feColorMatrix in="SourceAlpha" type="matrix" values="0 0 0 0 0 0 0 0 0 0 0 0 0 0 0 0 0 0 127 0" result="hardAlpha"/>
<feMorphology radius="2" operator="erode" in="SourceAlpha" result="effect1_dropShadow_1_790"/>
<feOffset dy="8"/>
<feGaussianBlur stdDeviation="11"/>
<feColorMatrix type="matrix" values="0 0 0 0 0.971137 0 0 0 0 0.341921 0 0 0 0 0.36709 0 0 0 0.3 0"/>
<feBlend mode="normal" in2="BackgroundImageFix" result="effect1_dropShadow_1_790"/>
<feBlend mode="normal" in="SourceGraphic" in2="effect1_dropShadow_1_790" result="shape"/>
</filter>
<linearGradient id="paint0_linear_1_790" x1="33.5" y1="12.4473" x2="65" y2="78.4473" gradientUnits="userSpaceOnUse">
<stop stop-color="#FF858A"/>
<stop offset="1" stop-color="#F04148"/>
</linearGradient>
</defs>
</svg>
