<svg width="106" height="107" viewBox="0 0 106 107" fill="none" xmlns="http://www.w3.org/2000/svg">
<g filter="url(#filter0_d_1_775)">
<rect x="20" y="12.4473" width="66" height="66" rx="24" fill="url(#paint0_linear_1_775)"/>
</g>
<path fill-rule="evenodd" clip-rule="evenodd" d="M43.9787 28.4473C41.7813 28.4473 40 30.2286 40 32.426V58.4685C40 60.666 41.7813 62.4473 43.9787 62.4473H62.7872C64.9846 62.4473 66.766 60.666 66.766 58.4685V32.426C66.766 30.2286 64.9846 28.4473 62.7872 28.4473H43.9787ZM46.8723 32.7877C45.474 32.7877 44.3404 33.9213 44.3404 35.3196C44.3404 36.7179 45.474 37.8515 46.8723 37.8515C48.2707 37.8515 49.4043 36.7179 49.4043 35.3196C49.4043 33.9213 48.2707 32.7877 46.8723 32.7877ZM44.3404 45.4473C44.3404 44.0489 45.474 42.9153 46.8723 42.9153C48.2707 42.9153 49.4043 44.0489 49.4043 45.4473C49.4043 46.8456 48.2707 47.9792 46.8723 47.9792C45.474 47.9792 44.3404 46.8456 44.3404 45.4473ZM46.8723 53.043C45.474 53.043 44.3404 54.1766 44.3404 55.5749C44.3404 56.9733 45.474 58.1068 46.8723 58.1068C48.2707 58.1068 49.4043 56.9733 49.4043 55.5749C49.4043 54.1766 48.2707 53.043 46.8723 53.043ZM54.1064 34.2345C53.5071 34.2345 53.0213 34.7203 53.0213 35.3196C53.0213 35.9189 53.5071 36.4047 54.1064 36.4047H62.7872C63.3865 36.4047 63.8723 35.9189 63.8723 35.3196C63.8723 34.7203 63.3865 34.2345 62.7872 34.2345H54.1064ZM53.0213 45.4473C53.0213 44.848 53.5071 44.3622 54.1064 44.3622H62.7872C63.3865 44.3622 63.8723 44.848 63.8723 45.4473C63.8723 46.0465 63.3865 46.5324 62.7872 46.5324H54.1064C53.5071 46.5324 53.0213 46.0465 53.0213 45.4473ZM54.1064 54.4898C53.5071 54.4898 53.0213 54.9757 53.0213 55.5749C53.0213 56.1742 53.5071 56.66 54.1064 56.66H62.7872C63.3865 56.66 63.8723 56.1742 63.8723 55.5749C63.8723 54.9757 63.3865 54.4898 62.7872 54.4898H54.1064Z" fill="white"/>
<defs>
<filter id="filter0_d_1_775" x="0" y="0.447266" width="106" height="106" filterUnits="userSpaceOnUse" color-interpolation-filters="sRGB">
<feFlood flood-opacity="0" result="BackgroundImageFix"/>
<feColorMatrix in="SourceAlpha" type="matrix" values="0 0 0 0 0 0 0 0 0 0 0 0 0 0 0 0 0 0 127 0" result="hardAlpha"/>
<feMorphology radius="2" operator="erode" in="SourceAlpha" result="effect1_dropShadow_1_775"/>
<feOffset dy="8"/>
<feGaussianBlur stdDeviation="11"/>
<feColorMatrix type="matrix" values="0 0 0 0 0.971137 0 0 0 0 0.341921 0 0 0 0 0.36709 0 0 0 0.3 0"/>
<feBlend mode="normal" in2="BackgroundImageFix" result="effect1_dropShadow_1_775"/>
<feBlend mode="normal" in="SourceGraphic" in2="effect1_dropShadow_1_775" result="shape"/>
</filter>
<linearGradient id="paint0_linear_1_775" x1="33.5" y1="12.4473" x2="65" y2="78.4473" gradientUnits="userSpaceOnUse">
<stop stop-color="#FF858A"/>
<stop offset="1" stop-color="#F04148"/>
</linearGradient>
</defs>
</svg>
