<svg width="106" height="107" viewBox="0 0 106 107" fill="none" xmlns="http://www.w3.org/2000/svg">
<g filter="url(#filter0_d_1_779)">
<rect x="20" y="10.4473" width="66" height="66" rx="24" fill="url(#paint0_linear_1_779)"/>
</g>
<path d="M44.2891 34.3089L46.4393 36.4591C46.5736 35.6976 46.9768 34.9809 47.5592 34.4433C48.9926 33.0994 51.322 33.0546 52.7555 34.3985C52.8451 34.4881 52.9347 34.5777 53.0242 34.6673C53.6066 35.3392 53.965 36.1903 53.965 37.0863C53.965 37.2654 53.965 37.4446 53.9202 37.579C53.8306 38.4301 53.4722 39.1917 52.8451 39.8188C52.3075 40.3564 51.6356 40.7147 50.874 40.8491L53.0242 42.9993L55.6224 40.4012C55.6672 40.3564 55.6672 40.3564 55.712 40.3564C55.712 40.3564 55.712 40.3564 55.7568 40.3564C55.8016 40.3564 55.8016 40.3564 55.8464 40.3564C55.8912 40.3564 55.936 40.3564 55.936 40.3564C56.0256 40.4012 56.1152 40.4907 56.1152 40.6251C56.1152 41.4763 56.4735 42.2378 57.0559 42.8201C57.683 43.4473 58.4893 43.7608 59.3404 43.7608C59.3404 43.7608 59.3404 43.7608 59.3852 43.7608C59.654 43.7608 59.878 43.716 60.1468 43.6712C60.7291 43.5369 61.2667 43.2233 61.6698 42.7753C62.3866 41.969 62.6553 40.8939 62.4314 39.8636C62.297 39.3261 62.0282 38.8333 61.6698 38.4301C61.4459 38.2062 61.1771 37.9822 60.9083 37.8478C60.6395 37.7134 60.3708 37.6238 60.102 37.5342C59.9676 37.4894 59.8332 37.4894 59.6988 37.4446C59.6092 37.4446 59.4748 37.4446 59.3852 37.4446C59.2509 37.4446 59.1613 37.355 59.1165 37.2654C59.0717 37.1759 59.1165 37.0415 59.1613 36.9519L61.7594 34.3537L54.5025 27.052C53.6962 26.2457 52.3523 26.2457 51.546 27.052L44.2891 34.3089Z" fill="white"/>
<path d="M69.4177 41.969L62.1607 34.7121L60.0105 36.8623C60.7721 36.9967 61.4888 37.3998 62.0264 37.9374C63.3702 39.3708 63.415 41.7002 62.0712 43.1337C61.3544 43.8952 60.4137 44.3432 59.3834 44.3432C58.3531 44.388 57.3676 43.9848 56.6509 43.2233C56.1133 42.6857 55.7549 42.0138 55.6206 41.2523L53.4256 43.4473L56.0237 46.0454C56.1133 46.135 56.1133 46.2694 56.0685 46.359C56.0237 46.4486 55.9341 46.5382 55.7997 46.5382C54.9486 46.5382 54.1871 46.8965 53.6048 47.4789C52.9776 48.106 52.664 48.9123 52.664 49.8083C52.664 50.6594 53.0224 51.4657 53.6943 52.0928C53.8735 52.272 54.0975 52.4512 54.3663 52.5408C55.531 53.1679 57.054 52.9888 58.0843 52.048C58.7115 51.4657 59.0698 50.6594 59.0698 49.8083C59.0698 49.6739 59.1594 49.5843 59.249 49.5395C59.3386 49.4947 59.473 49.5395 59.5626 49.5843L62.1607 52.1824L69.4177 44.9255C69.8208 44.5224 70.0448 43.9848 70.0448 43.4473C70.0448 42.8649 69.8208 42.3722 69.4177 41.969Z" fill="white"/>
<path d="M59.6074 50.4354C59.473 51.197 59.0698 51.9137 58.4875 52.4512C57.054 53.7951 54.7246 53.8399 53.2912 52.496C52.5296 51.7793 52.0817 50.8386 52.0817 49.8083C52.0817 49.0468 52.3057 48.2852 52.7088 47.6581C52.8432 47.4341 53.0224 47.2549 53.2016 47.0758C53.7391 46.5382 54.4111 46.1798 55.1726 46.0454L53.0224 43.8505L50.4242 46.4486C50.3347 46.583 50.2003 46.583 50.1107 46.5382C50.0211 46.4934 49.9315 46.4038 49.9315 46.2694C49.9315 45.4183 49.5731 44.6568 48.9908 44.0744C48.3636 43.4473 47.5573 43.1337 46.6614 43.1337C46.5718 43.1337 46.4374 43.1337 46.3478 43.1337C45.5863 43.2233 44.9144 43.5817 44.3768 44.1192C43.5257 45.0151 43.3465 46.359 43.7497 47.4789C43.7497 47.5237 43.7945 47.5685 43.7945 47.6133C43.7945 47.6581 43.8393 47.7029 43.8393 47.7477C43.9737 48.0165 44.1528 48.2852 44.3768 48.5092C44.9592 49.1364 45.7655 49.4947 46.6166 49.4947C46.751 49.4947 46.8406 49.5843 46.8854 49.6739C46.9302 49.7635 46.8854 49.8979 46.8406 49.9875L44.2424 52.5856L51.4993 59.8426C52.3057 60.6489 53.6495 60.6489 54.4559 59.8426L61.7128 52.5856L59.6074 50.4354Z" fill="white"/>
<path d="M36.6271 44.9255L43.8841 52.1824L46.0343 50.0322C45.2727 49.8978 44.556 49.4947 44.0184 48.9123C42.6746 47.4789 42.6298 45.1495 43.9736 43.716C44.6904 42.9545 45.6311 42.5065 46.6614 42.5065C47.6917 42.5065 48.6772 42.8649 49.3939 43.6264C49.9315 44.164 50.2899 44.8359 50.4242 45.5974L52.5744 43.4472L49.9763 40.8491C49.8867 40.7595 49.8867 40.6251 49.9315 40.5355C49.9763 40.4459 50.0659 40.3563 50.2003 40.3563C51.0514 40.3563 51.8129 39.998 52.3953 39.4156C52.4848 39.326 52.5296 39.2364 52.6192 39.1916C53.112 38.6093 53.336 37.8926 53.336 37.131C53.336 36.2799 52.9776 35.4736 52.3057 34.8464C51.0962 33.7266 49.1252 33.7266 47.9605 34.8912C47.3333 35.4736 46.975 36.2799 46.975 37.131C46.975 37.2654 46.8854 37.355 46.7958 37.3998C46.7062 37.4446 46.5718 37.3998 46.4822 37.355L43.8841 34.7569L36.6271 41.969C36.224 42.3721 36 42.8649 36 43.4472C36 44.0296 36.224 44.5223 36.6271 44.9255Z" fill="white"/>
<defs>
<filter id="filter0_d_1_779" x="0" y="0.447266" width="106" height="106" filterUnits="userSpaceOnUse" color-interpolation-filters="sRGB">
<feFlood flood-opacity="0" result="BackgroundImageFix"/>
<feColorMatrix in="SourceAlpha" type="matrix" values="0 0 0 0 0 0 0 0 0 0 0 0 0 0 0 0 0 0 127 0" result="hardAlpha"/>
<feMorphology radius="2" operator="erode" in="SourceAlpha" result="effect1_dropShadow_1_779"/>
<feOffset dy="10"/>
<feGaussianBlur stdDeviation="11"/>
<feColorMatrix type="matrix" values="0 0 0 0 0.427083 0 0 0 0 0.671455 0 0 0 0 1 0 0 0 0.36 0"/>
<feBlend mode="normal" in2="BackgroundImageFix" result="effect1_dropShadow_1_779"/>
<feBlend mode="normal" in="SourceGraphic" in2="effect1_dropShadow_1_779" result="shape"/>
</filter>
<linearGradient id="paint0_linear_1_779" x1="33.5" y1="10.4473" x2="65" y2="76.4473" gradientUnits="userSpaceOnUse">
<stop stop-color="#5CA1FE"/>
<stop offset="1" stop-color="#217BF4"/>
</linearGradient>
</defs>
</svg>
