<svg width="106" height="107" viewBox="0 0 106 107" fill="none" xmlns="http://www.w3.org/2000/svg">
<g filter="url(#filter0_d_1_786)">
<rect x="20" y="10.4473" width="66" height="66" rx="24" fill="url(#paint0_linear_1_786)"/>
</g>
<path d="M70 40.3805V49.9702C69.9992 50.6636 69.7234 51.3284 69.2331 51.8187C68.7428 52.3091 68.078 52.5849 67.3846 52.5856H66.5128V56.0728C66.5127 56.2385 66.4654 56.4007 66.3765 56.5405C66.2875 56.6804 66.1606 56.7919 66.0106 56.8622C65.8605 56.9325 65.6936 56.9586 65.5292 56.9375C65.3649 56.9164 65.2099 56.8488 65.0826 56.7429L60.0944 52.5856H51.6923C50.9989 52.5849 50.3341 52.3091 49.8438 51.8187C49.3535 51.3284 49.0777 50.6636 49.0769 49.9702V49.0984H57.7949C58.9505 49.0971 60.0585 48.6374 60.8756 47.8202C61.6928 47.003 62.1525 45.8951 62.1538 44.7395V37.7651H67.3846C68.078 37.7659 68.7428 38.0417 69.2331 38.532C69.7234 39.0223 69.9992 39.6871 70 40.3805ZM57.7949 47.3548H45.9908L41.0205 53.1523C40.9046 53.2873 40.7501 53.3837 40.5778 53.4283C40.4055 53.473 40.2237 53.4639 40.0568 53.4022C39.8898 53.3405 39.7458 53.2292 39.6439 53.0832C39.5421 52.9372 39.4874 52.7636 39.4872 52.5856V47.3548H38.6154C37.922 47.3541 37.2572 47.0783 36.7669 46.588C36.2766 46.0977 36.0008 45.4329 36 44.7395V32.5343C36.0008 31.8409 36.2766 31.1761 36.7669 30.6858C37.2572 30.1955 37.922 29.9197 38.6154 29.9189H57.7949C58.4883 29.9197 59.1531 30.1955 59.6434 30.6858C60.1337 31.1761 60.4095 31.8409 60.4103 32.5343V44.7395C60.4095 45.4329 60.1337 46.0977 59.6434 46.588C59.1531 47.0783 58.4883 47.3541 57.7949 47.3548ZM55.1795 40.3805C55.1795 40.1493 55.0876 39.9275 54.9241 39.764C54.7607 39.6005 54.5389 39.5087 54.3077 39.5087H42.1026C41.8713 39.5087 41.6496 39.6005 41.4861 39.764C41.3226 39.9275 41.2308 40.1493 41.2308 40.3805C41.2308 40.6117 41.3226 40.8334 41.4861 40.9969C41.6496 41.1604 41.8713 41.2523 42.1026 41.2523H54.3077C54.5389 41.2523 54.7607 41.1604 54.9241 40.9969C55.0876 40.8334 55.1795 40.6117 55.1795 40.3805ZM55.1795 36.0215C55.1795 35.7903 55.0876 35.5686 54.9241 35.4051C54.7607 35.2416 54.5389 35.1497 54.3077 35.1497H42.1026C41.8713 35.1497 41.6496 35.2416 41.4861 35.4051C41.3226 35.5686 41.2308 35.7903 41.2308 36.0215C41.2308 36.2527 41.3226 36.4745 41.4861 36.638C41.6496 36.8015 41.8713 36.8933 42.1026 36.8933H54.3077C54.5389 36.8933 54.7607 36.8015 54.9241 36.638C55.0876 36.4745 55.1795 36.2527 55.1795 36.0215Z" fill="white"/>
<defs>
<filter id="filter0_d_1_786" x="0" y="0.447266" width="106" height="106" filterUnits="userSpaceOnUse" color-interpolation-filters="sRGB">
<feFlood flood-opacity="0" result="BackgroundImageFix"/>
<feColorMatrix in="SourceAlpha" type="matrix" values="0 0 0 0 0 0 0 0 0 0 0 0 0 0 0 0 0 0 127 0" result="hardAlpha"/>
<feMorphology radius="2" operator="erode" in="SourceAlpha" result="effect1_dropShadow_1_786"/>
<feOffset dy="10"/>
<feGaussianBlur stdDeviation="11"/>
<feColorMatrix type="matrix" values="0 0 0 0 0.97947 0 0 0 0 0.730307 0 0 0 0 0.328531 0 0 0 0.3 0"/>
<feBlend mode="normal" in2="BackgroundImageFix" result="effect1_dropShadow_1_786"/>
<feBlend mode="normal" in="SourceGraphic" in2="effect1_dropShadow_1_786" result="shape"/>
</filter>
<linearGradient id="paint0_linear_1_786" x1="33.5" y1="10.4473" x2="65" y2="76.4473" gradientUnits="userSpaceOnUse">
<stop stop-color="#FFD085"/>
<stop offset="1" stop-color="#FFAF2E"/>
</linearGradient>
</defs>
</svg>
