<svg width="106" height="107" viewBox="0 0 106 107" fill="none" xmlns="http://www.w3.org/2000/svg">
<g filter="url(#filter0_d_1_800)">
<rect x="20" y="10.4473" width="66" height="66" rx="24" fill="url(#paint0_linear_1_800)"/>
</g>
<path fill-rule="evenodd" clip-rule="evenodd" d="M47.6349 43.7517C51.1525 43.7517 54.0042 40.9001 54.0042 37.3825C54.0042 33.8648 51.1525 31.0132 47.6349 31.0132C44.1173 31.0132 41.2656 33.8648 41.2656 37.3825C41.2656 40.9001 44.1173 43.7517 47.6349 43.7517Z" fill="white"/>
<path fill-rule="evenodd" clip-rule="evenodd" d="M53.1641 43.0388C51.7321 44.4042 49.7827 45.2443 47.635 45.2443C45.4873 45.2443 43.5378 44.4042 42.1058 43.0388C41.8592 42.9776 41.6126 42.9172 41.3731 42.8867C41.1336 42.8561 40.9019 42.8561 40.6859 42.8895C40.4705 42.9222 40.2715 42.989 40.0391 43.0722C39.8067 43.1546 39.5416 43.2541 39.2098 43.4532C38.8786 43.6522 38.4799 43.9507 38.099 44.449C37.7173 44.9458 37.3527 45.6431 37.0208 46.4725C36.6889 47.3013 36.3905 48.2637 36.2249 49.1927C36.0593 50.121 36.0259 51.0172 36.0095 51.6968C35.9925 52.377 35.9925 52.8418 36.0593 53.2896C36.1254 53.7374 36.2576 54.1681 36.5568 54.5996C36.8552 55.031 37.3193 55.4624 37.8666 55.7937C38.4138 56.1256 39.0442 56.358 39.9069 56.4739C40.769 56.5897 41.8635 56.5897 43.1903 56.5897H47.038H47.635H48.2319H52.0796C53.4064 56.5897 54.5009 56.5897 55.363 56.4739C56.2257 56.358 56.8561 56.1256 57.4034 55.7937C57.9506 55.4624 58.4147 55.031 58.7132 54.5996C59.0124 54.1681 59.1445 53.7374 59.2106 53.2896C59.2774 52.8418 59.2774 52.377 59.2604 51.6968C59.244 51.0172 59.2106 50.121 59.045 49.1927C58.8795 48.2637 58.581 47.3013 58.2491 46.4725C57.9172 45.6431 57.5526 44.9458 57.171 44.449C56.79 43.9507 56.3913 43.6522 56.0602 43.4532C55.7283 43.2541 55.4632 43.1546 55.2308 43.0722C54.9984 42.989 54.7994 42.9222 54.5841 42.8895C54.368 42.8561 54.1363 42.8561 53.8968 42.8867C53.6573 42.9172 53.4107 42.9776 53.1641 43.0388Z" fill="white"/>
<path fill-rule="evenodd" clip-rule="evenodd" d="M54.4239 40.5212C55.5558 41.5546 57.063 42.1858 58.7166 42.1858C62.2333 42.1858 65.0843 39.3342 65.0843 35.8165C65.0843 32.2989 62.2333 29.4473 58.7166 29.4473C56.4583 29.4473 54.4736 30.6236 53.3438 32.397C54.6186 33.5612 55.4187 35.2387 55.4187 37.1016C55.4187 38.3597 55.0535 39.5339 54.4239 40.5212Z" fill="white"/>
<path fill-rule="evenodd" clip-rule="evenodd" d="M63.8933 41.7079C62.5034 43.0321 60.6271 43.863 58.5547 43.9113L58.7836 44.1857C59.1654 44.6825 59.5301 45.3798 59.8621 46.2092C60.1942 47.038 60.4928 48.0004 60.6584 48.9294C60.8241 49.8577 60.8575 50.7539 60.8738 51.4335C60.8909 52.1137 60.8909 52.5785 60.8241 53.0263C60.758 53.4741 60.6257 53.9048 60.3264 54.3363C60.1039 54.6575 59.7896 54.9795 59.4178 55.2589H62.8084C64.1357 55.2589 65.2306 55.2589 66.093 55.143C66.9561 55.0271 67.5867 54.7947 68.1342 54.4628C68.6816 54.1316 69.1459 53.7001 69.4445 53.2687C69.7438 52.8372 69.876 52.4065 69.9421 51.9587C70.009 51.5109 70.009 51.0461 69.9919 50.3659C69.9755 49.6864 69.9421 48.7901 69.7765 47.8618C69.6108 46.9328 69.3122 45.9704 68.9802 45.1417C68.6482 44.3122 68.2835 43.6149 67.9017 43.1181C67.5206 42.6198 67.1218 42.3213 66.7904 42.1223C66.4584 41.9233 66.1932 41.8237 65.9608 41.7413C65.7283 41.6581 65.5292 41.5913 65.3138 41.5586C65.0976 41.5252 64.8659 41.5252 64.6263 41.5558C64.3867 41.5863 64.14 41.6468 63.8933 41.7079Z" fill="white"/>
<defs>
<filter id="filter0_d_1_800" x="0" y="0.447266" width="106" height="106" filterUnits="userSpaceOnUse" color-interpolation-filters="sRGB">
<feFlood flood-opacity="0" result="BackgroundImageFix"/>
<feColorMatrix in="SourceAlpha" type="matrix" values="0 0 0 0 0 0 0 0 0 0 0 0 0 0 0 0 0 0 127 0" result="hardAlpha"/>
<feMorphology radius="2" operator="erode" in="SourceAlpha" result="effect1_dropShadow_1_800"/>
<feOffset dy="10"/>
<feGaussianBlur stdDeviation="11"/>
<feColorMatrix type="matrix" values="0 0 0 0 0.427083 0 0 0 0 0.671455 0 0 0 0 1 0 0 0 0.36 0"/>
<feBlend mode="normal" in2="BackgroundImageFix" result="effect1_dropShadow_1_800"/>
<feBlend mode="normal" in="SourceGraphic" in2="effect1_dropShadow_1_800" result="shape"/>
</filter>
<linearGradient id="paint0_linear_1_800" x1="33.5" y1="10.4473" x2="65" y2="76.4473" gradientUnits="userSpaceOnUse">
<stop stop-color="#5CA1FE"/>
<stop offset="1" stop-color="#217BF4"/>
</linearGradient>
</defs>
</svg>
