<svg width="36" height="37" viewBox="0 0 36 37" fill="none" xmlns="http://www.w3.org/2000/svg">
<circle cx="18" cy="18.4473" r="18" fill="white"/>
<path d="M17.9542 10.7014C20.475 10.7014 20.75 10.7014 21.7583 10.7473C22.675 10.7931 23.1792 10.9306 23.5 11.0681C23.9125 11.2056 24.2792 11.4806 24.6 11.7556C24.9208 12.0764 25.15 12.4431 25.2875 12.8556C25.425 13.1764 25.5625 13.6806 25.6083 14.5973C25.6542 15.6056 25.6542 15.8806 25.6542 18.4014C25.6542 20.9223 25.6542 21.1973 25.6083 22.2056C25.5625 23.1223 25.425 23.6264 25.2875 23.9473C24.9667 24.7723 24.325 25.4139 23.5 25.7348C23.1792 25.8723 22.675 26.0098 21.7583 26.0556C20.75 26.1014 20.475 26.1014 17.9542 26.1014C15.4333 26.1014 15.1583 26.1014 14.15 26.0556C13.2333 26.0098 12.7292 25.8723 12.4083 25.7348C11.9958 25.5973 11.6292 25.3223 11.3083 25.0473C10.9875 24.7264 10.7583 24.3598 10.6208 23.9473C10.4833 23.6264 10.3458 23.1223 10.3 22.2056C10.2542 21.1973 10.2542 20.9223 10.2542 18.4014C10.2542 15.8806 10.2542 15.6056 10.3 14.5973C10.3458 13.6806 10.4833 13.1764 10.6208 12.8556C10.7583 12.4431 11.0333 12.0764 11.3083 11.7556C11.6292 11.4348 11.9958 11.2056 12.4083 11.0681C12.7292 10.9306 13.2333 10.7931 14.15 10.7473C15.1583 10.7014 15.4792 10.7014 17.9542 10.7014ZM17.9542 9.00561C15.3875 9.00561 15.0667 9.00561 14.0583 9.05144C13.05 9.09728 12.3625 9.23478 11.7667 9.50978C11.1708 9.73894 10.6208 10.1056 10.1625 10.5639C9.70417 11.0223 9.29167 11.6181 9.0625 12.2139C8.83333 12.8098 8.65 13.4973 8.60417 14.5056C8.55833 15.5139 8.55833 15.8348 8.55833 18.4014C8.55833 20.9681 8.55833 21.2889 8.60417 22.2973C8.65 23.3056 8.7875 23.9931 9.0625 24.5889C9.29167 25.1848 9.65833 25.7806 10.1625 26.2389C10.6208 26.6973 11.2167 27.1098 11.8125 27.3389C12.4083 27.5681 13.0958 27.7514 14.1042 27.7973C15.1125 27.8431 15.4333 27.8431 18 27.8431C20.5667 27.8431 20.8875 27.8431 21.8958 27.7973C22.9042 27.7514 23.5917 27.6139 24.1875 27.3389C25.4708 26.8348 26.4333 25.8723 26.9375 24.5889C27.1667 23.9931 27.35 23.3056 27.3958 22.2973C27.4417 21.2889 27.4417 20.9681 27.4417 18.4014C27.4417 15.8348 27.4417 15.5139 27.3958 14.5056C27.35 13.4973 27.2125 12.8098 26.9375 12.2139C26.7083 11.5723 26.3417 11.0223 25.8375 10.5639C25.3792 10.1056 24.7833 9.69311 24.1875 9.46394C23.5917 9.23478 22.9042 9.05144 21.8958 9.00561C20.8417 9.00561 20.5208 9.00561 17.9542 9.00561Z" fill="#2B2B39"/>
<path d="M17.9529 13.5889C15.2945 13.5889 13.1404 15.7431 13.1404 18.4014C13.1404 21.0598 15.2945 23.2139 17.9529 23.2139C20.6112 23.2139 22.7654 21.0598 22.7654 18.4014C22.8112 15.7431 20.657 13.5889 17.9529 13.5889ZM17.9529 21.5639C16.2112 21.5639 14.8362 20.1431 14.8362 18.4473C14.8362 16.7056 16.257 15.3306 17.9529 15.3306C19.6945 15.3306 21.0695 16.7514 21.0695 18.4473C21.1154 20.1431 19.6945 21.5639 17.9529 21.5639Z" fill="#2B2B39"/>
<path d="M22.9971 14.5514C23.63 14.5514 24.143 14.0384 24.143 13.4056C24.143 12.7728 23.63 12.2598 22.9971 12.2598C22.3643 12.2598 21.8513 12.7728 21.8513 13.4056C21.8513 14.0384 22.3643 14.5514 22.9971 14.5514Z" fill="#2B2B39"/>
</svg>
