<svg width="36" height="37" viewBox="0 0 36 37" fill="none" xmlns="http://www.w3.org/2000/svg">
<circle cx="18" cy="18.4473" r="18" fill="white"/>
<path d="M11.5677 14.0445C12.6754 14.0445 13.5734 13.1465 13.5734 12.0388C13.5734 10.9311 12.6754 10.0332 11.5677 10.0332C10.46 10.0332 9.56207 10.9311 9.56207 12.0388C9.56207 13.1465 10.46 14.0445 11.5677 14.0445Z" fill="#2B2B39"/>
<path d="M15.4661 15.5644V26.6918H18.921V21.189C18.921 19.737 19.1942 18.3309 20.9945 18.3309C22.7701 18.3309 22.7921 19.991 22.7921 21.2807V26.6927H26.2489V20.5905C26.2489 17.593 25.6035 15.2894 22.1 15.2894C20.4179 15.2894 19.2904 16.2125 18.8294 17.086H18.7826V15.5644H15.4661ZM9.83594 15.5644H13.2964V26.6918H9.83594V15.5644Z" fill="#2B2B39"/>
</svg>
