<svg width="28" height="29" viewBox="0 0 28 29" fill="none" xmlns="http://www.w3.org/2000/svg">
<path d="M14.4825 21.3086L19.9988 24.8036C20.704 25.2503 21.5794 24.5859 21.3702 23.7628L19.7764 17.4932C19.7315 17.3185 19.7368 17.1348 19.7917 16.9631C19.8466 16.7913 19.9489 16.6386 20.0868 16.5224L25.0335 12.4051C25.6835 11.8641 25.348 10.7854 24.5129 10.7312L18.0528 10.3119C17.8788 10.2995 17.7119 10.2379 17.5716 10.1343C17.4312 10.0307 17.3232 9.88935 17.2601 9.72672L14.8507 3.65937C14.7852 3.48676 14.6688 3.33815 14.5168 3.23329C14.3649 3.12843 14.1846 3.07227 14 3.07227C13.8154 3.07227 13.6351 3.12843 13.4832 3.23329C13.3312 3.33815 13.2148 3.48676 13.1493 3.65937L10.74 9.72672C10.6768 9.88935 10.5688 10.0307 10.4285 10.1343C10.2881 10.2379 10.1212 10.2995 9.94721 10.3119L3.4871 10.7312C2.65201 10.7854 2.31653 11.8641 2.96651 12.4051L7.91325 16.5224C8.0511 16.6386 8.15336 16.7913 8.20827 16.9631C8.26317 17.1348 8.26849 17.3185 8.2236 17.4932L6.74553 23.3076C6.49444 24.2953 7.54501 25.0926 8.39117 24.5565L13.5175 21.3086C13.6617 21.2169 13.8291 21.1681 14 21.1681C14.1709 21.1681 14.3383 21.2169 14.4825 21.3086V21.3086Z" stroke="#217BF4" stroke-width="1.5" stroke-linecap="round" stroke-linejoin="round"/>
</svg>
