<svg width="36" height="37" viewBox="0 0 36 37" fill="none" xmlns="http://www.w3.org/2000/svg">
<circle cx="18" cy="18.4473" r="18" fill="white"/>
<path d="M25.7627 12.5778C26.623 12.0622 27.2836 11.2457 27.5947 10.2728C26.7897 10.7502 25.898 11.0969 24.9489 11.2838C24.1889 10.4741 23.1061 9.96808 21.9078 9.96808C19.6067 9.96808 17.7412 11.8335 17.7412 14.1344C17.7412 14.461 17.7781 14.779 17.8491 15.0839C14.3864 14.9102 11.3163 13.2514 9.2614 10.7307C8.90276 11.3461 8.6973 12.0618 8.6973 12.8254C8.6973 14.2708 9.43292 15.5461 10.5509 16.2932C9.86784 16.2716 9.22545 16.0842 8.66365 15.7721C8.66335 15.7895 8.66335 15.807 8.66335 15.8245C8.66335 17.8432 10.0995 19.5272 12.0055 19.9099C11.6559 20.0051 11.2878 20.056 10.9078 20.056C10.6393 20.056 10.3783 20.0299 10.124 19.9813C10.6541 21.6366 12.1928 22.8411 14.016 22.8748C12.5901 23.9922 10.7935 24.6583 8.84155 24.6583C8.50528 24.6583 8.17361 24.6386 7.84766 24.6001C9.69149 25.7823 11.8816 26.472 14.2345 26.472C21.898 26.472 26.0887 20.1233 26.0887 14.6176C26.0887 14.4369 26.0847 14.2572 26.0767 14.0786C26.8907 13.4911 27.5971 12.7573 28.1557 11.9218C27.4085 12.2532 26.6055 12.4771 25.7627 12.5778Z" fill="#2B2B39"/>
</svg>
